v 8 35 27
v 8 36 27
v 9 39 28
v 10 31 26
v 10 32 26
v 10 36 32
v 10 42 28
v 11 23 31
v 11 25 31
v 11 27 31
v 11 33 32
v 11 40 33
v 11 44 28
v 11 45 28
v 11 46 28
v 12 46 33
v 13 28 25
v 13 31 25
v 13 36 22
v 13 39 22
v 13 53 29
v 14 16 31
v 14 19 31
v 14 45 22
v 14 48 22
v 14 48 32
v 14 53 32
v 14 57 29
v 15 31 32
v 15 33 32
v 15 40 33
v 16 25 25
v 16 29 33
v 16 33 21
v 17 7 31
v 17 37 21
v 17 42 21
v 17 49 21
v 17 54 23
v 17 57 32
v 17 60 29
v 18 14 26
v 18 14 36
v 18 19 26
v 18 21 36
v 18 26 33
v 18 31 22
v 19 0 31
v 19 2 31
v 19 16 23
v 19 31 42
v 19 35 42
v 19 41 42
v 19 49 42
v 19 54 41
v 19 60 26
v 19 60 33
v 20 7 24
v 20 7 38
v 20 26 22
v 20 27 42
v 21 0 25
v 21 0 37
v 21 2 25
v 21 2 37
v 21 56 21
v 21 61 29
v 22 18 21
v 22 25 42
v 22 60 25
v 22 60 38
v 23 14 20
v 23 16 42
v 23 19 42
v 23 22 20
v 23 32 17
v 23 37 17
v 23 43 17
v 23 49 17
v 23 54 18
v 24 61 33
v 26 0 22
v 26 0 40
v 26 2 22
v 26 2 40
v 26 7 21
v 26 7 41
v 27 25 17
v 27 27 46
v 27 31 46
v 27 35 46
v 27 41 46
v 27 48 46
v 27 54 45
v 27 58 20
v 27 60 42
v 28 13 18
v 28 15 44
v 28 18 17
v 28 18 45
v 28 21 18
v 28 23 44
v 28 61 24
v 28 61 38
v 28 62 29
v 28 62 33
v 31 0 21
v 31 0 41
v 31 2 21
v 31 2 41
v 31 7 20
v 31 7 42
v 31 13 18
v 31 15 44
v 31 17 16
v 31 18 45
v 31 21 17
v 31 22 44
v 31 24 16
v 31 26 46
v 31 31 47
v 31 32 15
v 31 35 47
v 31 37 15
v 31 41 47
v 31 43 15
v 31 48 47
v 31 54 17
v 31 55 45
v 31 58 19
v 31 60 43
v 31 61 23
v 31 61 39
v 31 62 28
v 31 62 34
v 34 13 18
v 34 15 44
v 34 18 17
v 34 18 45
v 34 21 18
v 34 23 44
v 34 61 24
v 34 61 38
v 34 62 29
v 34 62 33
v 35 25 17
v 35 27 46
v 35 31 46
v 35 35 46
v 35 41 46
v 35 48 46
v 35 54 45
v 35 58 20
v 35 60 42
v 36 0 22
v 36 0 40
v 36 2 22
v 36 2 40
v 36 7 21
v 36 7 41
v 38 61 33
v 39 14 20
v 39 16 42
v 39 19 42
v 39 22 20
v 39 32 17
v 39 37 17
v 39 43 17
v 39 49 17
v 39 54 18
v 40 18 21
v 40 25 42
v 40 60 25
v 40 60 38
v 41 0 25
v 41 0 37
v 41 2 25
v 41 2 37
v 41 56 21
v 41 61 29
v 42 7 24
v 42 7 38
v 42 26 22
v 42 27 42
v 43 0 31
v 43 2 31
v 43 16 23
v 43 31 42
v 43 35 42
v 43 41 42
v 43 49 42
v 43 54 41
v 43 60 26
v 43 60 33
v 44 14 26
v 44 14 36
v 44 19 26
v 44 21 36
v 44 26 33
v 44 31 22
v 45 7 31
v 45 37 21
v 45 42 21
v 45 49 21
v 45 54 23
v 45 57 32
v 45 60 29
v 46 25 25
v 46 29 33
v 46 33 21
v 47 31 32
v 47 33 32
v 47 40 33
v 48 16 31
v 48 19 31
v 48 45 22
v 48 48 22
v 48 48 32
v 48 53 32
v 48 57 29
v 49 28 25
v 49 31 25
v 49 36 22
v 49 39 22
v 49 53 29
v 50 46 33
v 51 23 31
v 51 25 31
v 51 27 31
v 51 33 32
v 51 40 33
v 51 44 28
v 51 45 28
v 51 46 28
v 52 31 26
v 52 32 26
v 52 36 32
v 52 42 28
v 53 39 28
v 54 35 27
v 54 36 27
f 1 6 2
f 1 2 19
f 1 5 11
f 1 19 5
f 1 11 6
f 2 12 3
f 2 3 20
f 2 6 12
f 2 20 19
f 3 12 7
f 3 7 20
f 4 10 5
f 4 5 19
f 4 18 10
f 4 34 18
f 4 19 34
f 5 10 11
f 6 11 30
f 6 53 12
f 6 30 31
f 6 31 53
f 7 16 13
f 7 13 24
f 7 12 16
f 7 24 20
f 8 9 32
f 8 45 9
f 8 44 23
f 8 23 45
f 8 32 44
f 9 10 17
f 9 33 10
f 9 17 32
f 9 46 33
f 9 45 46
f 10 29 11
f 10 18 17
f 10 33 29
f 11 29 30
f 12 54 16
f 12 53 54
f 13 16 14
f 13 14 24
f 14 26 15
f 14 15 25
f 14 16 26
f 14 25 24
f 15 21 25
f 15 27 21
f 15 26 27
f 16 54 26
f 17 18 47
f 17 47 32
f 18 34 47
f 19 20 36
f 19 36 34
f 20 24 37
f 20 37 36
f 21 28 25
f 21 27 28
f 22 23 44
f 22 45 23
f 22 42 35
f 22 35 43
f 22 44 42
f 22 43 45
f 24 25 38
f 24 38 37
f 25 28 39
f 25 39 38
f 26 55 27
f 26 54 55
f 27 40 28
f 27 55 40
f 28 41 39
f 28 40 57
f 28 57 41
f 29 51 30
f 29 33 61
f 29 61 51
f 30 52 31
f 30 51 52
f 31 52 53
f 32 75 44
f 32 47 60
f 32 60 75
f 33 46 69
f 33 69 61
f 34 36 76
f 34 76 47
f 35 42 49
f 35 49 43
f 36 37 77
f 36 77 76
f 37 38 78
f 37 78 77
f 38 39 79
f 38 79 78
f 39 41 56
f 39 56 66
f 39 66 79
f 40 55 71
f 40 71 57
f 41 67 56
f 41 57 67
f 42 44 68
f 42 50 49
f 42 68 50
f 43 74 45
f 43 49 59
f 43 59 73
f 43 73 74
f 44 75 68
f 45 69 46
f 45 74 69
f 47 76 60
f 48 63 49
f 48 49 64
f 48 64 62
f 49 50 64
f 49 65 59
f 49 63 65
f 50 72 64
f 50 68 72
f 51 90 52
f 51 61 89
f 51 89 90
f 52 91 53
f 52 90 91
f 53 92 54
f 53 91 92
f 54 93 55
f 54 92 93
f 55 94 71
f 55 93 94
f 56 70 66
f 56 67 70
f 57 81 67
f 57 71 81
f 58 64 72
f 58 84 64
f 58 72 86
f 58 86 84
f 59 65 87
f 59 98 73
f 59 87 98
f 60 88 75
f 60 76 88
f 61 69 102
f 61 102 89
f 62 64 84
f 62 84 82
f 63 83 65
f 65 83 85
f 65 85 87
f 66 70 95
f 66 80 79
f 66 95 80
f 67 105 70
f 67 81 106
f 67 106 105
f 68 99 72
f 68 75 99
f 69 74 100
f 69 100 102
f 70 103 95
f 70 105 103
f 71 104 81
f 71 94 96
f 71 96 104
f 72 97 86
f 72 99 97
f 73 98 74
f 74 98 100
f 75 88 101
f 75 101 99
f 76 77 124
f 76 122 88
f 76 124 122
f 77 78 126
f 77 126 124
f 78 79 128
f 78 128 126
f 79 80 128
f 80 95 128
f 81 104 106
f 82 84 109
f 82 109 107
f 83 108 85
f 84 86 109
f 85 112 87
f 85 108 110
f 85 110 112
f 86 97 111
f 86 111 109
f 87 114 98
f 87 112 114
f 88 119 101
f 88 122 119
f 89 120 90
f 89 102 118
f 89 118 120
f 90 121 91
f 90 120 121
f 91 123 92
f 91 121 123
f 92 125 93
f 92 123 125
f 93 127 94
f 93 125 127
f 94 129 96
f 94 127 129
f 95 103 130
f 95 130 128
f 96 133 104
f 96 129 131
f 96 131 133
f 97 99 115
f 97 113 111
f 97 115 113
f 98 114 100
f 99 101 115
f 100 116 102
f 100 114 116
f 101 117 115
f 101 119 117
f 102 116 118
f 103 105 134
f 103 132 130
f 103 134 132
f 104 133 106
f 105 106 135
f 105 135 134
f 106 133 135
f 107 109 155
f 108 158 110
f 108 156 158
f 109 111 159
f 109 157 155
f 109 159 157
f 110 158 112
f 111 113 136
f 111 136 159
f 112 160 114
f 112 158 160
f 113 115 136
f 114 139 116
f 114 137 139
f 114 160 137
f 115 117 140
f 115 138 136
f 115 140 138
f 116 141 118
f 116 139 141
f 117 119 140
f 118 147 120
f 118 141 147
f 119 122 146
f 119 146 140
f 120 148 121
f 120 147 148
f 121 149 123
f 121 148 149
f 122 124 166
f 122 166 146
f 123 150 125
f 123 149 150
f 124 126 167
f 124 167 166
f 125 151 127
f 125 150 151
f 126 128 168
f 126 168 167
f 127 152 129
f 127 151 152
f 128 130 153
f 128 153 170
f 128 169 168
f 128 170 169
f 129 154 131
f 129 152 154
f 130 132 141
f 130 141 143
f 130 143 153
f 131 154 133
f 132 134 141
f 133 145 135
f 133 143 145
f 133 154 143
f 134 135 144
f 134 142 141
f 134 144 142
f 135 145 144
f 136 138 162
f 136 181 159
f 136 162 181
f 137 164 139
f 137 160 182
f 137 163 164
f 137 182 163
f 138 140 165
f 138 171 162
f 138 165 171
f 139 172 141
f 139 164 172
f 140 146 165
f 141 142 147
f 141 172 143
f 142 144 173
f 142 153 147
f 142 173 153
f 143 161 145
f 143 154 152
f 143 152 174
f 143 174 161
f 143 172 164
f 143 164 172
f 143 174 172
f 143 172 174
f 144 145 180
f 144 180 173
f 145 161 180
f 146 183 165
f 146 166 183
f 147 188 148
f 147 153 165
f 147 165 183
f 147 183 184
f 147 184 188
f 148 189 149
f 148 188 189
f 149 190 150
f 149 189 190
f 150 191 151
f 150 190 191
f 151 192 152
f 151 191 192
f 152 192 174
f 153 173 170
f 155 157 175
f 156 178 158
f 156 176 178
f 157 159 181
f 157 177 175
f 157 181 177
f 158 178 160
f 160 178 182
f 161 174 194
f 161 194 180
f 162 171 195
f 162 177 181
f 162 187 177
f 162 195 187
f 163 196 164
f 163 182 196
f 164 198 172
f 164 196 198
f 166 167 202
f 166 200 183
f 166 210 200
f 166 202 210
f 167 168 203
f 167 203 202
f 168 169 204
f 168 204 203
f 169 170 179
f 169 179 205
f 169 205 204
f 170 173 193
f 170 193 179
f 171 171 197
f 171 197 195
f 172 174 194
f 172 199 174
f 172 184 199
f 172 208 184
f 172 194 206
f 172 198 227
f 172 227 208
f 173 180 193
f 174 192 206
f 174 199 194
f 175 177 185
f 176 185 178
f 177 186 185
f 177 187 186
f 178 201 182
f 178 185 201
f 179 193 205
f 180 207 193
f 180 194 207
f 182 201 196
f 183 208 184
f 183 200 208
f 184 211 188
f 184 208 199
f 184 208 211
f 185 186 201
f 186 187 195
f 186 195 201
f 188 212 189
f 188 211 212
f 189 213 190
f 189 212 213
f 190 231 191
f 190 213 237
f 190 237 231
f 191 218 192
f 191 226 218
f 191 231 226
f 192 219 206
f 192 218 219
f 193 220 205
f 193 207 220
f 194 199 209
f 194 209 206
f 195 197 213
f 195 213 201
f 196 215 198
f 196 201 213
f 196 213 215
f 197 215 213
f 197 227 215
f 197 216 221
f 197 221 227
f 198 215 227
f 199 208 228
f 199 228 209
f 200 221 208
f 200 210 221
f 202 203 224
f 202 223 210
f 202 224 223
f 203 204 216
f 203 216 224
f 204 205 217
f 204 217 216
f 205 225 217
f 205 220 225
f 206 209 220
f 206 219 220
f 207 220 225
f 207 225 220
f 208 221 222
f 208 222 228
f 209 229 220
f 209 228 229
f 210 222 235
f 210 235 221
f 211 230 212
f 211 229 230
f 212 237 213
f 212 230 237
f 213 216 233
f 213 233 226
f 216 217 233
f 216 238 224
f 216 231 238
f 217 219 233
f 217 225 219
f 218 233 219
f 218 226 233
f 219 225 220
f 221 235 222
f 221 229 227
f 221 235 229
f 222 223 236
f 222 236 235
f 223 224 236
f 224 241 236
f 224 238 241
f 226 231 238
f 226 238 232
f 229 236 230
f 229 235 236
f 230 236 241
f 230 241 237
f 231 237 238
```
